<svg xmlns="http://www.w3.org/2000/svg" xmlns:xlink="http://www.w3.org/1999/xlink" width="200" zoomAndPan="magnify" viewBox="0 0 150 149.999998" height="200" preserveAspectRatio="xMidYMid meet" version="1.0"><defs><clipPath id="b019364569"><path d="M 9.398438 8.230469 L 140.648438 8.230469 L 140.648438 141.730469 L 9.398438 141.730469 Z M 9.398438 8.230469 " clip-rule="nonzero"/></clipPath></defs><g clip-path="url(#b019364569)"><path fill="#e8b94a" d="M 35.894531 101.539062 C 34.976562 101.539062 34.230469 100.796875 34.230469 99.878906 C 34.230469 98.960938 34.976562 98.214844 35.894531 98.214844 L 76.496094 98.214844 C 77.414062 98.214844 78.160156 98.960938 78.160156 99.878906 C 78.160156 100.796875 77.414062 101.539062 76.496094 101.539062 Z M 90.691406 39.761719 L 110.523438 52.660156 L 111.832031 53.511719 L 111.910156 53.558594 L 122.9375 48.871094 C 123.007812 48.832031 123.085938 48.800781 123.160156 48.773438 L 126.179688 47.488281 C 125.796875 41.441406 124.488281 36.101562 122.253906 31.472656 C 120.082031 26.96875 117.027344 23.125 113.09375 19.941406 C 110.769531 21.707031 108.183594 22.941406 105.332031 23.640625 C 102.089844 24.433594 98.519531 24.527344 94.617188 23.921875 C 94.480469 23.902344 94.347656 23.863281 94.222656 23.8125 C 91.574219 22.757812 89.011719 22.277344 86.539062 22.367188 C 84.097656 22.457031 81.71875 23.117188 79.402344 24.34375 L 75.855469 26.484375 L 75.835938 26.496094 L 57.203125 37.734375 L 57.160156 37.902344 L 57.15625 37.921875 L 57.152344 37.945312 C 57.054688 38.398438 57.03125 38.828125 57.089844 39.234375 L 57.089844 39.246094 L 57.09375 39.261719 L 57.09375 39.28125 L 57.097656 39.289062 L 57.101562 39.316406 L 57.101562 39.320312 L 57.105469 39.34375 L 57.109375 39.355469 L 57.109375 39.371094 L 57.113281 39.394531 L 57.117188 39.398438 L 57.121094 39.421875 L 57.121094 39.429688 L 57.128906 39.449219 L 57.160156 39.582031 C 57.351562 40.296875 57.828125 40.980469 58.585938 41.632812 L 58.667969 41.707031 C 59.109375 42.074219 59.644531 42.433594 60.265625 42.777344 C 61.746094 43.128906 63.179688 43.203125 64.566406 43.003906 C 66.003906 42.792969 67.40625 42.28125 68.777344 41.46875 L 68.828125 41.441406 C 72.664062 39.214844 76.378906 37.9375 79.960938 37.617188 C 83.621094 37.285156 87.109375 37.949219 90.429688 39.601562 C 90.523438 39.648438 90.609375 39.703125 90.691406 39.761719 Z M 109.675781 56.0625 C 109.863281 56.558594 109.949219 57.089844 109.921875 57.621094 C 109.890625 58.234375 109.714844 58.84375 109.378906 59.398438 L 109.328125 59.46875 C 108.765625 60.347656 107.890625 60.921875 106.9375 61.128906 C 105.976562 61.339844 104.941406 61.191406 104.0625 60.628906 L 104.054688 60.628906 L 102.898438 59.886719 L 102.695312 59.753906 L 102.601562 59.695312 L 99.234375 57.542969 L 99.210938 57.527344 C 99.113281 57.449219 99.03125 57.386719 98.964844 57.339844 C 98.925781 57.3125 98.886719 57.285156 98.847656 57.261719 L 98.652344 57.136719 L 98.65625 57.132812 L 97.484375 56.382812 L 97.480469 56.378906 L 97.472656 56.375 L 97.46875 56.375 L 97.464844 56.371094 L 97.457031 56.367188 L 93.863281 54.066406 C 93.09375 53.570312 92.066406 53.792969 91.570312 54.566406 C 91.074219 55.335938 91.300781 56.363281 92.070312 56.855469 L 95.605469 59.121094 L 95.613281 59.125 C 95.675781 59.171875 95.746094 59.226562 95.828125 59.285156 L 95.886719 59.324219 C 95.964844 59.378906 96.046875 59.433594 96.132812 59.488281 L 97.292969 60.230469 L 97.296875 60.234375 L 97.300781 60.234375 L 97.308594 60.238281 L 97.316406 60.246094 L 97.320312 60.246094 L 97.328125 60.253906 L 100.839844 62.5 L 100.90625 62.542969 C 101.785156 63.109375 102.359375 63.984375 102.566406 64.9375 C 102.777344 65.902344 102.628906 66.9375 102.0625 67.820312 C 101.503906 68.695312 100.628906 69.265625 99.671875 69.476562 C 98.738281 69.679688 97.730469 69.542969 96.867188 69.019531 L 96.796875 68.972656 L 94.191406 67.304688 L 93.796875 67.050781 L 93.578125 66.914062 C 91.214844 65.382812 89.332031 64.1875 87.464844 63 L 84.160156 60.90625 C 83.390625 60.414062 82.367188 60.640625 81.875 61.410156 C 81.386719 62.183594 81.613281 63.207031 82.382812 63.695312 L 85.6875 65.804688 C 86.984375 66.628906 88.28125 67.453125 89.472656 68.214844 C 89.511719 68.246094 89.554688 68.277344 89.597656 68.304688 L 92.402344 70.097656 L 94.292969 71.316406 C 94.992188 71.765625 95.445312 72.464844 95.609375 73.222656 C 95.773438 73.988281 95.652344 74.8125 95.203125 75.511719 L 95.199219 75.519531 C 94.75 76.210938 94.054688 76.664062 93.292969 76.828125 C 92.53125 76.992188 91.707031 76.871094 91.007812 76.421875 L 91 76.417969 L 89.074219 75.175781 C 88.867188 75.003906 88.648438 74.84375 88.417969 74.695312 C 88.386719 74.671875 88.351562 74.652344 88.320312 74.636719 L 82.011719 70.597656 C 81.414062 69.730469 80.613281 68.984375 79.636719 68.433594 L 79.617188 68.425781 C 77.910156 67.472656 75.96875 67.304688 74.21875 67.796875 C 74.089844 67.835938 73.957031 67.875 73.828125 67.921875 C 73.789062 67.703125 73.742188 67.492188 73.683594 67.28125 C 73.230469 65.675781 72.183594 64.238281 70.640625 63.34375 C 70.582031 63.304688 70.515625 63.269531 70.453125 63.238281 C 68.882812 62.390625 67.113281 62.246094 65.507812 62.695312 C 65.335938 62.746094 65.160156 62.800781 64.988281 62.867188 C 64.953125 62.683594 64.910156 62.503906 64.859375 62.324219 C 64.375 60.59375 63.238281 59.042969 61.574219 58.082031 C 61.515625 58.042969 61.457031 58.011719 61.394531 57.980469 C 59.707031 57.066406 57.796875 56.910156 56.070312 57.394531 C 55.863281 57.453125 55.660156 57.519531 55.457031 57.597656 C 55.417969 57.386719 55.371094 57.179688 55.3125 56.972656 C 54.816406 55.210938 53.652344 53.640625 51.941406 52.679688 L 51.921875 52.667969 C 50.59375 51.929688 49.128906 51.664062 47.71875 51.8125 L 47.695312 51.816406 L 47.675781 51.816406 L 47.621094 51.824219 L 47.609375 51.824219 L 47.570312 51.832031 L 47.527344 51.835938 L 47.519531 51.835938 L 47.464844 51.84375 L 47.441406 51.847656 L 47.359375 51.859375 L 47.355469 51.859375 L 47.308594 51.871094 L 47.273438 51.875 L 47.253906 51.878906 L 47.203125 51.886719 L 47.1875 51.890625 L 47.152344 51.898438 L 47.105469 51.90625 L 47.097656 51.90625 L 47.046875 51.917969 L 47.023438 51.921875 L 46.996094 51.925781 L 46.945312 51.9375 L 46.9375 51.941406 L 46.890625 51.949219 L 46.855469 51.957031 L 46.839844 51.960938 L 46.789062 51.972656 L 46.773438 51.976562 L 46.738281 51.988281 L 46.636719 52.011719 L 46.605469 52.019531 L 46.582031 52.027344 L 46.53125 52.039062 L 46.523438 52.042969 L 46.480469 52.054688 L 46.378906 52.085938 L 46.359375 52.089844 L 46.328125 52.101562 L 46.28125 52.117188 L 46.277344 52.117188 L 46.195312 52.144531 L 46.179688 52.148438 L 46.128906 52.167969 L 46.117188 52.171875 L 46.078125 52.183594 L 46.035156 52.199219 L 46.027344 52.203125 L 45.980469 52.21875 L 45.953125 52.230469 L 45.917969 52.242188 L 45.832031 52.277344 L 45.792969 52.292969 L 45.78125 52.296875 L 45.730469 52.316406 L 45.714844 52.324219 L 45.683594 52.335938 L 45.636719 52.355469 L 45.632812 52.359375 L 45.585938 52.378906 L 45.441406 52.445312 L 45.402344 52.460938 L 45.390625 52.46875 L 45.34375 52.492188 L 45.324219 52.5 L 45.296875 52.515625 L 45.25 52.539062 L 45.246094 52.539062 L 45.203125 52.5625 L 45.105469 52.609375 L 45.09375 52.617188 L 45.058594 52.636719 L 45.011719 52.660156 L 44.96875 52.6875 L 44.941406 52.699219 L 44.921875 52.714844 L 44.792969 52.785156 L 44.78125 52.792969 L 44.738281 52.820312 L 44.71875 52.832031 L 44.691406 52.847656 L 44.601562 52.90625 L 44.574219 52.921875 L 44.554688 52.933594 L 44.511719 52.964844 L 44.5 52.96875 L 44.46875 52.992188 L 44.429688 53.019531 L 44.425781 53.019531 L 44.382812 53.050781 L 44.359375 53.066406 L 44.339844 53.078125 L 44.300781 53.109375 L 44.257812 53.140625 L 44.21875 53.167969 L 44.214844 53.171875 L 44.171875 53.199219 L 44.148438 53.21875 L 44.132812 53.230469 L 44.089844 53.261719 L 44.078125 53.273438 L 44.050781 53.296875 L 43.96875 53.359375 L 43.941406 53.378906 L 43.929688 53.390625 L 43.890625 53.425781 L 43.875 53.4375 L 43.847656 53.457031 L 43.769531 53.527344 L 43.742188 53.550781 L 43.730469 53.558594 L 43.691406 53.59375 L 43.675781 53.605469 L 43.652344 53.628906 L 43.613281 53.664062 L 43.613281 53.667969 L 43.578125 53.699219 L 43.550781 53.726562 L 43.539062 53.734375 L 43.5 53.773438 L 43.484375 53.785156 L 43.359375 53.910156 L 43.351562 53.921875 L 43.277344 53.996094 L 43.242188 54.035156 L 43.207031 54.070312 L 43.179688 54.101562 L 43.171875 54.109375 L 43.136719 54.148438 L 43.121094 54.167969 L 43.101562 54.1875 L 43.066406 54.230469 L 43.0625 54.234375 L 43.03125 54.269531 L 43.003906 54.300781 L 42.964844 54.351562 L 42.945312 54.371094 L 42.929688 54.390625 L 42.894531 54.433594 L 42.890625 54.441406 L 42.863281 54.472656 L 42.835938 54.507812 L 42.828125 54.515625 L 42.796875 54.558594 L 42.78125 54.582031 L 42.765625 54.601562 L 42.734375 54.644531 L 42.726562 54.652344 L 42.699219 54.6875 L 42.671875 54.726562 L 42.667969 54.730469 L 42.636719 54.773438 L 42.621094 54.796875 L 42.578125 54.859375 L 42.546875 54.90625 L 42.519531 54.945312 L 42.515625 54.949219 L 42.488281 54.996094 L 42.46875 55.023438 L 42.371094 55.175781 L 42.371094 55.179688 L 42.324219 55.253906 L 42.316406 55.273438 L 42.234375 55.414062 L 40.695312 58.15625 L 40.078125 57.5625 L 36.1875 53.824219 C 36.0625 53.703125 35.921875 53.609375 35.777344 53.535156 L 35.777344 53.53125 L 30.652344 50.980469 L 27.082031 49.203125 C 27.035156 49.175781 26.988281 49.152344 26.9375 49.128906 L 23.785156 47.558594 C 24.160156 41.480469 25.472656 36.117188 27.710938 31.472656 C 29.886719 26.96875 32.941406 23.125 36.875 19.941406 C 39.195312 21.707031 41.785156 22.941406 44.636719 23.640625 C 47.878906 24.433594 51.449219 24.527344 55.347656 23.921875 C 55.488281 23.902344 55.621094 23.863281 55.742188 23.808594 C 58.394531 22.757812 60.957031 22.277344 63.429688 22.367188 C 65.871094 22.457031 68.25 23.117188 70.566406 24.34375 L 71.769531 25.070312 L 54.964844 35.207031 L 54.949219 35.21875 L 54.945312 35.21875 L 54.929688 35.226562 L 54.882812 35.261719 L 54.867188 35.269531 L 54.851562 35.28125 L 54.847656 35.28125 L 54.835938 35.292969 L 54.832031 35.292969 L 54.820312 35.304688 L 54.816406 35.304688 L 54.804688 35.316406 L 54.773438 35.339844 L 54.757812 35.355469 L 54.730469 35.378906 L 54.699219 35.402344 L 54.644531 35.457031 L 54.621094 35.484375 L 54.617188 35.484375 L 54.59375 35.511719 L 54.558594 35.554688 L 54.554688 35.554688 L 54.53125 35.582031 L 54.519531 35.597656 L 54.507812 35.609375 C 54.386719 35.769531 54.296875 35.945312 54.238281 36.132812 C 54.195312 36.25 54.152344 36.367188 54.117188 36.484375 L 54.109375 36.5 C 54.0625 36.65625 54.015625 36.808594 53.976562 36.957031 L 53.972656 36.976562 L 53.957031 37.046875 L 53.953125 37.050781 L 53.9375 37.113281 L 53.933594 37.140625 L 53.921875 37.183594 L 53.910156 37.230469 L 53.90625 37.253906 L 53.890625 37.320312 L 53.878906 37.390625 L 53.875 37.410156 L 53.863281 37.460938 L 53.855469 37.5 L 53.851562 37.527344 L 53.839844 37.589844 L 53.839844 37.597656 L 53.828125 37.664062 L 53.824219 37.679688 L 53.816406 37.734375 L 53.796875 37.859375 L 53.796875 37.871094 C 53.703125 38.574219 53.714844 39.261719 53.835938 39.925781 L 53.839844 39.929688 L 53.851562 39.992188 L 53.855469 40.015625 L 53.863281 40.054688 L 53.871094 40.097656 L 53.875 40.121094 L 53.890625 40.179688 L 53.890625 40.183594 L 53.90625 40.246094 L 53.910156 40.265625 L 53.953125 40.4375 C 54.324219 41.8125 55.148438 43.050781 56.429688 44.148438 L 56.496094 44.203125 L 56.5 44.207031 L 56.503906 44.207031 C 57.179688 44.777344 57.976562 45.308594 58.898438 45.804688 C 59.019531 45.867188 59.148438 45.917969 59.277344 45.949219 L 59.277344 45.953125 C 61.242188 46.445312 63.160156 46.558594 65.03125 46.285156 C 66.910156 46.015625 68.722656 45.359375 70.464844 44.324219 L 70.496094 44.304688 C 73.917969 42.324219 77.167969 41.191406 80.246094 40.914062 C 83.257812 40.644531 86.140625 41.1875 88.894531 42.546875 L 95.382812 46.765625 L 95.425781 46.796875 L 106.589844 54.054688 Z M 74.984375 23.132812 L 72.277344 21.5 C 72.234375 21.472656 72.191406 21.445312 72.148438 21.421875 C 69.386719 19.957031 66.519531 19.167969 63.546875 19.058594 C 60.660156 18.949219 57.699219 19.492188 54.660156 20.679688 C 51.273438 21.1875 48.1875 21.101562 45.414062 20.421875 C 43.007812 19.832031 40.824219 18.789062 38.863281 17.289062 L 39.242188 16.253906 C 39.515625 15.511719 39.222656 14.660156 38.515625 14.25 L 28.511719 8.464844 C 28.128906 8.242188 27.691406 8.191406 27.292969 8.289062 L 27.253906 8.296875 L 27.214844 8.308594 L 27.140625 8.332031 L 27.136719 8.332031 L 27.097656 8.347656 L 27.066406 8.359375 L 27.0625 8.363281 C 26.839844 8.453125 26.632812 8.589844 26.464844 8.769531 C 21.367188 13.84375 17.394531 19.5 14.546875 25.730469 C 11.6875 31.984375 9.96875 38.796875 9.394531 46.167969 C 9.335938 46.882812 9.742188 47.53125 10.359375 47.8125 L 18.953125 52.34375 C 19.628906 52.699219 20.4375 52.542969 20.9375 52.011719 L 22.390625 50.574219 L 24.609375 51.679688 L 24.609375 132.785156 C 24.609375 135.25 25.621094 137.496094 27.25 139.128906 L 27.257812 139.136719 L 27.257812 139.140625 C 28.890625 140.769531 31.140625 141.78125 33.609375 141.78125 L 116.359375 141.78125 C 118.777344 141.78125 120.988281 140.808594 122.609375 139.234375 C 122.648438 139.207031 122.683594 139.171875 122.714844 139.140625 C 124.347656 137.507812 125.359375 135.257812 125.359375 132.785156 L 125.359375 51.441406 L 127.523438 50.519531 L 129.03125 52.011719 C 129.53125 52.542969 130.339844 52.699219 131.015625 52.34375 L 139.617188 47.804688 C 140.226562 47.523438 140.628906 46.886719 140.574219 46.175781 C 140 38.796875 138.28125 31.980469 135.421875 25.730469 C 132.574219 19.5 128.601562 13.84375 123.503906 8.769531 C 123.332031 8.589844 123.128906 8.449219 122.90625 8.363281 L 122.902344 8.359375 L 122.871094 8.347656 L 122.832031 8.332031 L 122.828125 8.332031 L 122.753906 8.308594 L 122.714844 8.296875 L 122.675781 8.289062 C 122.277344 8.191406 121.839844 8.242188 121.457031 8.464844 L 111.453125 14.25 C 110.746094 14.660156 110.453125 15.511719 110.726562 16.253906 L 111.105469 17.289062 C 109.144531 18.789062 106.960938 19.832031 104.554688 20.421875 C 101.78125 21.101562 98.695312 21.1875 95.308594 20.679688 C 92.269531 19.492188 89.308594 18.949219 86.421875 19.058594 C 83.449219 19.167969 80.582031 19.957031 77.820312 21.421875 C 77.777344 21.445312 77.730469 21.472656 77.691406 21.5 Z M 114.464844 16.808594 L 114.324219 16.421875 L 122.007812 11.976562 C 126.421875 16.546875 129.890625 21.589844 132.410156 27.109375 C 134.960938 32.6875 136.546875 38.765625 137.171875 45.347656 L 130.542969 48.84375 L 129.519531 47.835938 C 129.15625 41.125 127.730469 35.1875 125.242188 30.03125 C 122.726562 24.816406 119.132812 20.410156 114.464844 16.808594 Z M 122.035156 52.855469 L 113.195312 56.617188 C 113.238281 57 113.25 57.390625 113.230469 57.777344 C 113.175781 58.9375 112.835938 60.097656 112.1875 61.148438 C 112.167969 61.1875 112.144531 61.222656 112.121094 61.261719 C 111.0625 62.914062 109.421875 63.984375 107.636719 64.375 C 107.058594 64.503906 106.46875 64.558594 105.871094 64.539062 C 106.167969 66.230469 105.855469 68.039062 104.855469 69.597656 C 103.792969 71.257812 102.15625 72.328125 100.375 72.722656 C 99.898438 72.824219 99.414062 72.882812 98.921875 72.886719 C 99.15625 74.371094 98.867188 75.945312 97.992188 77.304688 C 97.046875 78.777344 95.582031 79.730469 93.996094 80.074219 C 93.125 80.261719 92.210938 80.269531 91.324219 80.082031 C 91.316406 81.203125 91.011719 82.332031 90.386719 83.351562 C 90.363281 83.390625 90.339844 83.429688 90.316406 83.46875 C 89.367188 84.941406 87.90625 85.894531 86.316406 86.238281 C 84.730469 86.582031 83.007812 86.324219 81.535156 85.375 L 79.246094 83.902344 L 79.171875 83.851562 L 78.804688 84.507812 C 77.84375 86.21875 76.269531 87.382812 74.511719 87.878906 C 72.785156 88.363281 70.878906 88.207031 69.1875 87.292969 C 69.125 87.261719 69.0625 87.226562 69.003906 87.1875 C 67.632812 86.394531 66.625 85.203125 66.039062 83.839844 C 65.339844 84.394531 64.539062 84.800781 63.695312 85.039062 C 62.0625 85.5 60.257812 85.339844 58.671875 84.457031 L 58.65625 84.445312 C 57.222656 83.644531 56.203125 82.378906 55.675781 80.941406 C 55.144531 81.253906 54.574219 81.496094 53.984375 81.660156 C 52.234375 82.15625 50.292969 81.984375 48.585938 81.035156 L 48.566406 81.023438 C 46.855469 80.066406 45.691406 78.492188 45.195312 76.734375 C 44.800781 75.328125 44.832031 73.804688 45.347656 72.375 C 44.050781 72.460938 42.714844 72.195312 41.492188 71.535156 C 41.429688 71.503906 41.367188 71.472656 41.308594 71.433594 C 39.648438 70.46875 38.515625 68.921875 38.027344 67.191406 C 37.535156 65.4375 37.707031 63.488281 38.664062 61.777344 L 39.023438 61.140625 L 37.78125 59.949219 L 34.082031 56.398438 L 29.171875 53.953125 L 27.933594 53.335938 L 27.933594 132.785156 C 27.933594 134.347656 28.570312 135.765625 29.597656 136.789062 L 29.601562 136.796875 C 30.628906 137.820312 32.046875 138.457031 33.609375 138.457031 L 116.359375 138.457031 C 117.886719 138.457031 119.273438 137.851562 120.292969 136.871094 L 120.367188 136.789062 C 121.394531 135.761719 122.035156 134.34375 122.035156 132.785156 Z M 42.523438 61.683594 L 41.5625 63.398438 C 41.050781 64.3125 40.957031 65.355469 41.222656 66.296875 C 41.488281 67.238281 42.109375 68.078125 43.023438 68.589844 L 43.03125 68.597656 C 43.945312 69.101562 44.980469 69.191406 45.921875 68.929688 C 46.71875 68.703125 47.445312 68.222656 47.957031 67.523438 L 49.398438 64.953125 L 49.402344 64.953125 C 49.464844 64.84375 49.527344 64.738281 49.589844 64.636719 C 49.644531 64.554688 49.691406 64.480469 49.734375 64.417969 L 51.78125 60.765625 C 52.292969 59.851562 52.382812 58.808594 52.117188 57.867188 C 51.859375 56.953125 51.265625 56.128906 50.390625 55.617188 C 50.34375 55.59375 50.300781 55.566406 50.253906 55.542969 C 49.554688 55.164062 48.78125 55.03125 48.039062 55.117188 L 48.035156 55.117188 L 48.011719 55.121094 L 47.984375 55.121094 L 47.953125 55.125 L 47.945312 55.128906 L 47.902344 55.132812 L 47.898438 55.132812 L 47.839844 55.144531 L 47.785156 55.152344 L 47.769531 55.15625 L 47.703125 55.167969 L 47.683594 55.171875 L 47.671875 55.175781 L 47.644531 55.179688 L 47.636719 55.183594 L 47.617188 55.1875 L 47.59375 55.191406 L 47.589844 55.191406 L 47.5625 55.199219 L 47.550781 55.203125 L 47.535156 55.207031 L 47.507812 55.214844 L 47.398438 55.242188 L 47.375 55.25 L 47.371094 55.25 L 47.316406 55.269531 L 47.261719 55.285156 L 47.246094 55.289062 L 47.234375 55.292969 L 47.207031 55.304688 L 47.203125 55.304688 L 47.128906 55.332031 L 47.117188 55.335938 L 47.03125 55.371094 L 47.023438 55.371094 C 46.457031 55.601562 45.945312 55.960938 45.539062 56.441406 L 45.535156 56.445312 C 45.496094 56.492188 45.457031 56.542969 45.421875 56.589844 L 45.414062 56.601562 L 45.390625 56.628906 L 45.378906 56.648438 L 45.363281 56.667969 L 45.363281 56.671875 L 45.3125 56.742188 L 45.308594 56.746094 L 45.296875 56.765625 L 45.28125 56.785156 L 45.28125 56.789062 L 45.265625 56.8125 L 45.253906 56.828125 L 45.175781 56.953125 L 45.171875 56.960938 L 45.152344 56.992188 L 45.144531 57.011719 L 45.128906 57.035156 L 42.542969 61.648438 Z M 52.589844 66.109375 L 51.109375 68.75 C 51.003906 68.941406 50.890625 69.121094 50.769531 69.296875 L 48.726562 72.9375 C 48.214844 73.851562 48.125 74.894531 48.390625 75.835938 C 48.648438 76.753906 49.242188 77.574219 50.117188 78.089844 C 50.164062 78.113281 50.207031 78.136719 50.25 78.164062 C 51.148438 78.644531 52.167969 78.726562 53.085938 78.46875 C 54.027344 78.203125 54.867188 77.582031 55.378906 76.667969 L 57.457031 72.960938 C 57.5 72.882812 57.550781 72.808594 57.601562 72.742188 L 57.660156 72.652344 L 57.683594 72.617188 L 57.6875 72.609375 L 57.691406 72.605469 L 57.695312 72.597656 L 57.761719 72.480469 L 59.355469 69.636719 L 61.328125 66.117188 C 61.839844 65.203125 61.929688 64.164062 61.664062 63.21875 C 61.402344 62.28125 60.78125 61.4375 59.867188 60.925781 L 59.855469 60.921875 C 58.945312 60.414062 57.90625 60.324219 56.96875 60.589844 C 56.027344 60.851562 55.1875 61.476562 54.675781 62.386719 L 54.675781 62.390625 L 52.59375 66.097656 L 52.59375 66.105469 Z M 20.449219 47.835938 C 20.8125 41.125 22.238281 35.1875 24.726562 30.03125 C 27.242188 24.816406 30.835938 20.410156 35.503906 16.808594 L 35.644531 16.421875 L 27.960938 11.976562 C 23.546875 16.546875 20.078125 21.589844 17.558594 27.105469 C 15.011719 32.683594 13.421875 38.765625 12.796875 45.347656 L 19.425781 48.84375 Z M 62.300781 71.171875 L 62.25 71.257812 L 60.65625 74.101562 L 59.007812 77.039062 C 58.5625 77.835938 58.484375 78.742188 58.714844 79.558594 C 58.9375 80.351562 59.453125 81.0625 60.207031 81.511719 C 60.253906 81.535156 60.296875 81.558594 60.34375 81.585938 C 61.121094 82 62 82.070312 62.796875 81.84375 C 63.613281 81.617188 64.34375 81.074219 64.789062 80.28125 L 66.679688 76.910156 C 66.722656 76.835938 66.769531 76.765625 66.820312 76.699219 L 66.867188 76.628906 L 66.871094 76.621094 L 66.867188 76.621094 L 66.921875 76.53125 L 66.953125 76.476562 L 69.929688 71.167969 L 70.195312 70.695312 C 70.640625 69.902344 70.71875 68.996094 70.488281 68.175781 C 70.265625 67.382812 69.75 66.671875 68.992188 66.222656 C 68.945312 66.199219 68.902344 66.175781 68.859375 66.148438 C 68.082031 65.734375 67.203125 65.664062 66.40625 65.890625 C 65.613281 66.113281 64.902344 66.628906 64.453125 67.382812 C 64.429688 67.433594 64.398438 67.484375 64.367188 67.535156 L 62.523438 70.824219 C 62.492188 70.878906 62.460938 70.933594 62.421875 70.980469 L 62.335938 71.117188 Z M 72.824219 72.792969 L 69.847656 78.097656 L 69.257812 79.152344 C 68.746094 80.066406 68.652344 81.109375 68.917969 82.050781 C 69.183594 82.992188 69.804688 83.832031 70.71875 84.34375 L 70.726562 84.351562 C 71.640625 84.855469 72.675781 84.949219 73.617188 84.683594 C 74.554688 84.417969 75.398438 83.796875 75.910156 82.882812 L 77.316406 80.375 L 77.328125 80.347656 L 79.476562 76.519531 L 79.492188 76.488281 L 79.5 76.476562 L 79.503906 76.472656 L 79.511719 76.453125 L 79.519531 76.4375 L 79.523438 76.433594 L 79.53125 76.421875 L 79.539062 76.402344 L 79.542969 76.390625 L 79.546875 76.386719 L 79.554688 76.371094 L 79.566406 76.351562 L 79.566406 76.347656 L 79.574219 76.335938 L 79.582031 76.320312 L 79.585938 76.304688 L 79.589844 76.300781 L 79.597656 76.285156 L 79.605469 76.265625 L 79.609375 76.261719 L 79.613281 76.25 L 79.628906 76.21875 L 79.628906 76.214844 L 79.636719 76.199219 L 79.644531 76.179688 L 79.660156 76.148438 L 79.667969 76.128906 L 79.671875 76.113281 L 79.679688 76.09375 L 79.6875 76.078125 L 79.695312 76.058594 L 79.699219 76.042969 L 79.703125 76.039062 L 79.707031 76.023438 L 79.714844 76.007812 L 79.71875 75.996094 L 79.722656 75.988281 L 79.726562 75.972656 L 79.734375 75.957031 L 79.734375 75.949219 L 79.738281 75.9375 L 79.746094 75.921875 L 79.753906 75.902344 L 79.757812 75.886719 L 79.765625 75.867188 L 79.765625 75.859375 L 79.769531 75.851562 L 79.777344 75.832031 L 79.78125 75.816406 L 79.789062 75.796875 L 79.796875 75.769531 L 79.796875 75.761719 L 79.804688 75.742188 L 79.808594 75.726562 L 79.8125 75.707031 L 79.84375 75.589844 L 79.847656 75.582031 L 79.851562 75.566406 L 79.859375 75.53125 L 79.863281 75.511719 L 79.871094 75.476562 L 79.875 75.457031 L 79.878906 75.453125 L 79.878906 75.441406 L 79.886719 75.40625 L 79.890625 75.386719 C 79.964844 74.996094 79.976562 74.59375 79.929688 74.203125 L 79.921875 74.144531 L 79.921875 74.128906 C 79.894531 73.957031 79.859375 73.789062 79.8125 73.625 C 79.554688 72.707031 78.960938 71.886719 78.085938 71.371094 C 78.039062 71.347656 77.996094 71.324219 77.949219 71.296875 C 77.050781 70.816406 76.035156 70.734375 75.117188 70.992188 C 74.191406 71.253906 73.363281 71.859375 72.847656 72.75 Z M 83.25 75.320312 L 83.246094 75.355469 L 83.246094 75.367188 L 83.242188 75.367188 L 83.238281 75.433594 L 83.234375 75.445312 L 83.234375 75.46875 L 83.230469 75.480469 L 83.226562 75.535156 L 83.222656 75.539062 L 83.222656 75.570312 L 83.21875 75.578125 L 83.21875 75.601562 L 83.214844 75.613281 L 83.214844 75.625 L 83.210938 75.636719 L 83.210938 75.648438 L 83.207031 75.671875 L 83.207031 75.683594 L 83.203125 75.703125 L 83.203125 75.710938 L 83.199219 75.726562 L 83.199219 75.738281 L 83.195312 75.761719 L 83.191406 75.773438 L 83.1875 75.792969 L 83.1875 75.804688 L 83.183594 75.816406 L 83.183594 75.839844 L 83.179688 75.851562 L 83.179688 75.863281 L 83.175781 75.871094 L 83.175781 75.882812 L 83.171875 75.894531 L 83.171875 75.90625 L 83.167969 75.917969 L 83.164062 75.941406 L 83.164062 75.953125 L 83.160156 75.96875 L 83.15625 75.972656 L 83.144531 76.042969 L 83.132812 76.109375 L 83.125 76.140625 L 83.109375 76.210938 L 83.101562 76.242188 L 83.070312 76.378906 L 83.066406 76.398438 L 83.0625 76.410156 L 83.054688 76.445312 L 83.035156 76.511719 L 83.027344 76.546875 L 83.019531 76.566406 L 83.019531 76.578125 L 83.007812 76.613281 L 82.996094 76.652344 L 82.988281 76.679688 L 82.980469 76.710938 L 82.972656 76.738281 L 82.96875 76.746094 L 82.949219 76.808594 L 82.949219 76.8125 L 82.945312 76.824219 L 82.9375 76.84375 L 82.925781 76.878906 L 82.917969 76.90625 L 82.914062 76.910156 L 82.90625 76.945312 L 82.894531 76.976562 L 82.886719 76.992188 L 82.882812 77.011719 L 82.859375 77.074219 L 82.859375 77.078125 L 82.847656 77.109375 L 82.835938 77.144531 L 82.820312 77.175781 L 82.808594 77.207031 L 82.796875 77.242188 L 82.785156 77.273438 L 82.769531 77.308594 L 82.761719 77.324219 L 82.757812 77.339844 L 82.746094 77.371094 L 82.730469 77.40625 L 82.730469 77.410156 L 82.71875 77.4375 L 82.703125 77.46875 L 82.695312 77.492188 L 82.6875 77.503906 L 82.675781 77.535156 L 82.632812 77.632812 L 82.601562 77.695312 L 82.585938 77.730469 L 82.554688 77.792969 L 82.542969 77.820312 L 82.539062 77.824219 L 82.523438 77.859375 L 82.507812 77.890625 L 82.5 77.902344 L 82.488281 77.921875 L 82.441406 78.015625 L 82.421875 78.050781 L 82.414062 78.0625 L 82.40625 78.082031 L 82.386719 78.113281 L 82.371094 78.144531 L 80.800781 80.941406 C 80.875 81 80.957031 81.058594 81.039062 81.113281 L 83.328125 82.585938 C 84.027344 83.035156 84.851562 83.15625 85.617188 82.992188 C 86.378906 82.828125 87.078125 82.375 87.523438 81.675781 L 87.574219 81.605469 C 87.984375 80.921875 88.09375 80.128906 87.933594 79.386719 C 87.808594 78.808594 87.515625 78.265625 87.078125 77.84375 L 87.019531 77.804688 C 86.878906 77.722656 86.757812 77.621094 86.65625 77.503906 L 86.625 77.484375 L 86.542969 77.429688 Z M 87.574219 81.605469 C 87.648438 81.5 87.734375 81.40625 87.828125 81.324219 Z M 83.175781 101.539062 C 82.257812 101.539062 81.515625 100.796875 81.515625 99.878906 C 81.515625 98.960938 82.257812 98.214844 83.175781 98.214844 L 111.25 98.214844 C 112.167969 98.214844 112.914062 98.960938 112.914062 99.878906 C 112.914062 100.796875 112.167969 101.539062 111.25 101.539062 Z M 115.140625 124.210938 C 116.058594 124.210938 116.800781 124.953125 116.800781 125.871094 C 116.800781 126.789062 116.058594 127.535156 115.140625 127.535156 C 115.003906 127.535156 114.699219 127.554688 114.289062 127.585938 C 111.488281 127.78125 105.015625 128.238281 104.390625 125.304688 C 103.65625 126.476562 102.550781 128.695312 101.78125 130.246094 C 101.445312 130.914062 101.171875 131.46875 100.902344 131.929688 C 100.445312 132.722656 99.433594 132.996094 98.644531 132.542969 C 98.0625 132.207031 97.761719 131.570312 97.820312 130.945312 C 98.152344 127.660156 97.183594 126.453125 95.652344 126.300781 C 93.132812 126.046875 89.203125 127.625 85.886719 128.953125 C 82.398438 130.351562 79.472656 131.527344 77.898438 130.351562 C 76.09375 129.011719 77.148438 125.4375 83.261719 117.226562 C 83.808594 116.492188 84.84375 116.335938 85.578125 116.882812 C 86.3125 117.425781 86.46875 118.464844 85.925781 119.199219 C 81.28125 125.433594 79.761719 127.609375 79.871094 127.691406 C 79.960938 127.757812 82.101562 126.898438 84.65625 125.875 C 88.3125 124.40625 92.652344 122.667969 95.976562 123.003906 C 97.949219 123.203125 99.527344 123.988281 100.414062 125.683594 C 101.574219 123.636719 102.953125 121.6875 104.335938 121.289062 C 104.417969 121.261719 104.503906 121.242188 104.59375 121.230469 C 106.136719 121.019531 107.265625 121.957031 107.644531 124.707031 C 107.648438 124.726562 112.136719 124.410156 114.058594 124.273438 C 114.574219 124.238281 114.957031 124.210938 115.140625 124.210938 Z M 104.828125 124.683594 C 104.914062 124.585938 104.984375 124.527344 105.035156 124.515625 L 105.050781 124.515625 C 105.292969 124.480469 105.078125 124.550781 104.828125 124.683594 Z M 35.894531 111.09375 C 34.976562 111.09375 34.230469 110.347656 34.230469 109.429688 C 34.230469 108.511719 34.976562 107.769531 35.894531 107.769531 L 89.785156 107.769531 C 90.703125 107.769531 91.449219 108.511719 91.449219 109.429688 C 91.449219 110.347656 90.703125 111.09375 89.785156 111.09375 Z M 35.894531 111.09375 " fill-opacity="1" fill-rule="evenodd"/></g></svg>