<svg xmlns="http://www.w3.org/2000/svg" xmlns:xlink="http://www.w3.org/1999/xlink" width="200" zoomAndPan="magnify" viewBox="0 0 150 149.999998" height="200" preserveAspectRatio="xMidYMid meet" version="1.0"><defs><clipPath id="c0b8873c3d"><path d="M 9.171875 9.007812 L 141 9.007812 L 141 141 L 9.171875 141 Z M 9.171875 9.007812 " clip-rule="nonzero"/></clipPath></defs><g clip-path="url(#c0b8873c3d)"><path fill="#e8b94a" d="M 96.859375 116.238281 C 97.378906 116.757812 97.921875 117.203125 98.488281 117.582031 C 87.835938 126.351562 74.140625 133.917969 62.945312 140.6875 C 45.949219 130.410156 23.195312 118.304688 14.058594 102.921875 C 10.726562 97.308594 9.160156 91.402344 9.160156 84.875 L 9.160156 32.128906 C 25.03125 26.972656 41.78125 19.164062 62.945312 9.011719 C 84.105469 19.164062 100.859375 26.972656 116.726562 32.128906 L 116.726562 68.53125 C 116.691406 68.53125 116.65625 68.53125 116.617188 68.53125 C 113.070312 68.53125 110.324219 70.140625 108.300781 72.996094 C 107.792969 73.710938 107.0625 74.070312 106.226562 74.027344 L 106.226562 39.394531 C 91.523438 33.945312 77.0625 27.132812 62.945312 20.367188 C 48.828125 27.132812 34.363281 33.945312 19.664062 39.394531 L 19.664062 85.535156 C 19.664062 89.976562 20.664062 93.84375 22.933594 97.667969 C 29.691406 109.042969 48.960938 120.523438 62.945312 128.746094 C 72.757812 122.976562 85.179688 115.597656 94.046875 107.78125 C 93.644531 110.996094 94.492188 113.871094 96.855469 116.238281 Z M 86.859375 104.558594 L 82.703125 97.355469 C 81.753906 95.714844 80.125 94.777344 78.230469 94.777344 L 47.65625 94.777344 C 45.761719 94.777344 44.132812 95.714844 43.1875 97.355469 L 39.027344 104.558594 Z M 100.171875 74.488281 L 71.265625 59.175781 C 73.054688 56.582031 75.058594 54.128906 77.253906 51.84375 L 60.019531 41.890625 C 57.367188 51.046875 52.53125 59.425781 45.925781 66.296875 L 63.164062 76.25 C 64.046875 73.203125 65.171875 70.242188 66.519531 67.394531 L 93.988281 84.621094 C 93.746094 81.628906 94.628906 78.945312 96.859375 76.714844 C 97.871094 75.699219 98.980469 74.964844 100.171875 74.488281 Z M 82.585938 46.503906 C 83.558594 44.820312 82.976562 42.648438 81.292969 41.675781 L 66.804688 33.3125 C 65.121094 32.339844 62.949219 32.921875 61.976562 34.605469 L 60.207031 37.671875 L 80.816406 49.570312 Z M 56.378906 84.828125 C 58.0625 85.800781 60.234375 85.21875 61.207031 83.535156 L 62.976562 80.464844 L 42.367188 68.566406 L 40.597656 71.636719 C 39.625 73.320312 40.207031 75.492188 41.890625 76.464844 Z M 124.9375 119.957031 C 122.910156 122.8125 120.167969 124.425781 116.621094 124.425781 C 113.074219 124.425781 110.328125 122.8125 108.300781 119.957031 C 107.972656 119.5 107.558594 119.1875 107.078125 119.03125 L 107.078125 139.699219 C 107.078125 140.53125 108.054688 140.972656 108.679688 140.429688 L 113.871094 135.921875 C 115.457031 134.546875 117.78125 134.546875 119.367188 135.921875 L 124.558594 140.429688 C 125.183594 140.972656 126.160156 140.53125 126.160156 139.699219 L 126.160156 119.03125 C 125.679688 119.1875 125.265625 119.5 124.9375 119.957031 Z M 140.804688 96.476562 C 140.804688 98.804688 139.769531 100.414062 137.921875 101.730469 C 135.933594 103.140625 134.988281 105.421875 135.394531 107.824219 C 135.773438 110.0625 135.367188 111.933594 133.722656 113.578125 C 132.074219 115.222656 130.207031 115.632812 127.96875 115.253906 C 125.5625 114.847656 123.285156 115.789062 121.871094 117.777344 C 120.558594 119.628906 118.945312 120.660156 116.621094 120.660156 C 114.292969 120.660156 112.679688 119.628906 111.367188 117.777344 C 109.953125 115.789062 107.675781 114.847656 105.269531 115.253906 C 103.035156 115.632812 101.164062 115.222656 99.519531 113.578125 C 97.871094 111.933594 97.464844 110.0625 97.84375 107.824219 C 98.25 105.421875 97.304688 103.140625 95.316406 101.730469 C 93.46875 100.414062 92.433594 98.804688 92.433594 96.476562 C 92.433594 94.148438 93.46875 92.539062 95.316406 91.222656 C 97.304688 89.8125 98.25 87.53125 97.84375 85.128906 C 97.464844 82.890625 97.871094 81.019531 99.515625 79.375 C 101.164062 77.730469 103.03125 77.320312 105.269531 77.699219 C 107.675781 78.109375 109.953125 77.164062 111.367188 75.175781 C 112.679688 73.324219 114.292969 72.292969 116.621094 72.292969 C 118.945312 72.292969 120.558594 73.324219 121.871094 75.175781 C 123.285156 77.164062 125.5625 78.109375 127.96875 77.699219 C 130.203125 77.320312 132.074219 77.730469 133.71875 79.375 C 135.367188 81.019531 135.773438 82.890625 135.394531 85.128906 C 134.988281 87.53125 135.933594 89.8125 137.921875 91.222656 C 139.769531 92.539062 140.804688 94.148438 140.804688 96.476562 Z M 131.886719 96.476562 C 131.886719 88.058594 125.039062 81.207031 116.621094 81.207031 C 108.199219 81.207031 101.351562 88.058594 101.351562 96.476562 C 101.351562 104.898438 108.203125 111.746094 116.621094 111.746094 C 125.039062 111.746094 131.886719 104.894531 131.886719 96.476562 Z M 128.125 96.476562 C 128.125 102.820312 122.964844 107.984375 116.621094 107.984375 C 110.273438 107.984375 105.113281 102.820312 105.113281 96.476562 C 105.113281 90.132812 110.277344 84.96875 116.621094 84.96875 C 122.964844 84.96875 128.125 90.132812 128.125 96.476562 Z M 123.984375 91.121094 C 123.25 90.386719 122.0625 90.386719 121.328125 91.121094 L 113.90625 98.542969 L 111.222656 95.019531 C 110.59375 94.191406 109.414062 94.03125 108.585938 94.660156 C 107.761719 95.289062 107.601562 96.46875 108.230469 97.296875 L 112.214844 102.535156 C 112.542969 102.964844 113.042969 103.234375 113.585938 103.269531 C 114.132812 103.300781 114.652344 103.113281 115.042969 102.722656 L 123.984375 93.78125 C 124.722656 93.042969 124.722656 91.855469 123.984375 91.121094 Z M 123.984375 91.121094 " fill-opacity="1" fill-rule="evenodd"/></g></svg>